<?xml version="1.0" encoding="utf-8"?>
<!-- Generator: Adobe Illustrator 27.5.0, SVG Export Plug-In . SVG Version: 6.00 Build 0)  -->
<svg version="1.1" id="Layer_1" xmlns="http://www.w3.org/2000/svg" xmlns:xlink="http://www.w3.org/1999/xlink" x="0px" y="0px"
	 viewBox="0 0 267.2 267.2" style="enable-background:new 0 0 267.2 267.2;" xml:space="preserve">
<style type="text/css">
	.st0{fill:#FF9700;}
	.st1{fill:#FFFFFF;}
</style>
<path id="icon_x5F_circle" class="st0" d="M133.6,0C59.8,0,0,59.8,0,133.6s59.8,133.6,133.6,133.6s133.6-59.9,133.6-133.6
	S207.3,0,133.6,0z M133.6,243.4c-60.7,0-109.8-49.2-109.8-109.8S72.9,23.8,133.6,23.8s109.8,49.2,109.8,109.8
	S194.2,243.4,133.6,243.4L133.6,243.4z"/>
<g id="icon_x5F_play">
	<path class="st1" d="M205.7,137.6l-75.8,66.9c-10.2,8.9-26,3.3-28.9-10.1L80.6,96.7c-2.8-13.5,9.5-24.9,22.4-20.8l96.2,30.8
		C212.4,110.9,216.1,128.4,205.7,137.6L205.7,137.6z"/>
</g>
</svg>
