<?xml version="1.0" encoding="UTF-8"?><svg id="Layer_1" xmlns="http://www.w3.org/2000/svg" viewBox="0 0 267.2 267.2"><path id="icon_circle" d="m133.6,0C59.79,0,0,59.79,0,133.6s59.79,133.6,133.6,133.6,133.6-59.85,133.6-133.6S207.34,0,133.6,0Zm0,243.44c-60.68,0-109.84-49.16-109.84-109.84S72.91,23.75,133.6,23.75s109.84,49.16,109.84,109.84-49.22,109.84-109.84,109.84h0Z" fill="#ff9700"/><g id="icon_play"><path d="m205.68,137.57l-75.82,66.86c-10.15,8.91-26.01,3.33-28.86-10.09l-20.43-97.67c-2.79-13.48,9.5-24.94,22.38-20.84l96.25,30.82c13.24,4.28,16.92,21.73,6.47,30.93h.01Z" fill="#fff"/></g></svg>