<?xml version="1.0" encoding="UTF-8"?><svg id="logo_o2l" xmlns="http://www.w3.org/2000/svg" viewBox="0 0 1720 444.26"><path d="m437.64,125.84c-9.26-11.1-23.33-16.63-42.28-16.63-21.43,0-38.53,7.96-51.3,23.93l-1.48-20.66h-44.89v178.54h47.68v-125.88c6.71-11.46,16.8-17.16,30.22-17.16,10.21,0,17.52,2.26,21.91,6.83,4.45,4.57,6.65,11.93,6.65,22.03v114.18h47.68v-115.31c-.24-22.15-4.99-38.71-14.19-49.87Z" fill="#fff"/><path d="m630.02,197.8c0-28.26-7.01-50.11-21.02-65.49-14.01-15.44-33.25-23.1-57.65-23.1-16.33,0-30.82,3.8-43.52,11.46-12.71,7.66-22.5,18.52-29.45,32.66-6.89,14.13-10.39,30.16-10.39,48.09v4.63c0,26.72,8.25,48.09,24.7,64.19,16.45,16.03,37.76,24.05,63.89,24.05,14.9,0,28.38-2.79,40.61-8.49,12.23-5.64,21.91-13.54,29.04-23.63l-23.45-26.24c-10.33,13.3-24.64,19.95-43.05,19.95-11.88,0-21.67-3.5-29.45-10.57-7.72-7.01-12.41-16.39-13.95-28.03h113.7v-19.48Zm-46.85-13.06h-66.32c1.66-11.93,5.4-21.08,11.28-27.49,5.88-6.41,13.54-9.62,23.04-9.62,10.09,0,17.93,2.91,23.39,8.73,5.52,5.82,8.37,14.01,8.61,24.58v3.8Z" fill="#fff"/><path d="m999.36,252.09V50.43h-49.79v241.64h155.53v-39.98h-105.74Z" fill="#fff"/><path d="m1273.38,198.3c0-28.44-7.1-50.4-21.18-65.87-14.08-15.53-33.43-23.23-58-23.23-16.36,0-30.94,3.83-43.75,11.53-12.75,7.65-22.62,18.63-29.61,32.83-6.99,14.25-10.48,30.33-10.48,48.4v4.66c0,26.84,8.32,48.4,24.84,64.54,16.52,16.13,37.98,24.23,64.32,24.23,14.92,0,28.56-2.83,40.81-8.54,12.31-5.71,22.01-13.64,29.22-23.84l-23.56-26.39c-10.42,13.42-24.84,20.07-43.3,20.07-11.98,0-21.85-3.49-29.66-10.59-7.76-7.1-12.48-16.47-14.03-28.22h114.39v-19.57Zm-47.13-13.14h-66.76c1.66-11.98,5.49-21.18,11.37-27.67,5.93-6.43,13.64-9.65,23.18-9.65,10.2,0,18.02,2.94,23.56,8.76,5.54,5.82,8.43,14.08,8.65,24.73v3.83Z" fill="#fff"/><path d="m1432.4,250.59v-77.85c0-20.13-6.54-35.76-19.52-46.91-13.03-11.09-30.55-16.63-52.67-16.63-14.64,0-27.78,2.49-39.53,7.54-11.7,5.05-20.79,11.98-27.22,20.79-6.38,8.87-9.59,18.52-9.59,28.89h47.96c0-6.76,2.27-12.03,6.88-15.91,4.6-3.88,10.92-5.82,19.02-5.82,9.15,0,15.91,2.49,20.13,7.49,4.27,4.99,6.43,11.59,6.43,19.9v10.31h-22.07c-26.67.11-47.07,5.21-61.16,15.42-14.14,10.2-21.18,24.78-21.18,43.8,0,15.47,5.77,28.33,17.35,38.54,11.53,10.15,26.12,15.25,43.69,15.25,18.63,0,33.71-6.49,45.36-19.41,1,6.38,2.55,11.75,4.77,16.08h48.46v-2.83c-4.6-8.7-6.99-21.62-7.1-38.64Zm-48.13-9.32c-2.88,5.32-7.32,9.54-13.31,12.7-5.99,3.16-12.48,4.71-19.57,4.71s-13.03-1.94-17.24-5.77c-4.21-3.88-6.32-8.82-6.32-14.8l.17-2.83c1.55-16.58,14.31-24.89,38.31-24.89h17.96v30.88Z" fill="#fff"/><path d="m1542.24,109.2c-17.02,0-30.38,8.21-39.98,24.73l-1.33-21.46h-45.3v179.59h47.96v-117.49c5.6-12.31,17.52-18.41,35.65-18.41,4.99,0,10.76.44,17.3,1.33l.67-46.19c-4.66-1.39-9.65-2.11-14.97-2.11Z" fill="#fff"/><path d="m1705.75,125.95c-9.31-11.2-23.45-16.74-42.47-16.74-21.57,0-38.81,7.98-51.62,24.06l-1.5-20.79h-45.13v179.59h47.96v-126.64c6.71-11.48,16.86-17.24,30.33-17.24,10.31,0,17.69,2.27,22.12,6.88,4.38,4.6,6.6,11.98,6.6,22.18v114.83h47.96v-116c-.22-22.23-4.99-38.98-14.25-50.12Z" fill="#fff"/><g id="logo_2"><path d="m1524.86,346.41c-17.03,2.15-70.17-6.97-207.08,6.65-165.99,16.51-359.16,49.28-519.76,74.63-101.19,15.97-218.8,50.26-157.88-75.85,34.54-71.48,172.2-170.92,183.52-264.29.67-5.54,2.45-16.64-8.66-19.86-21.45-6.21-48.69,5.56-70.02,18.9-30.44,19.03,12.62,48.21,1.57,58.02-21.12,22.2-38.29,27.69-62.78-4.26-60.93-95.54,172.16-192.49,209.54-107.95,3.01,6.82,6.88,16.13,8.57,25.39,2.5,13.64,2.1,27.18,2.15,32.63.96,110.09-225.88,275.6-156.09,272.59,24.52-1.05,210.95-16.87,433.6-35.44,234.07-19.53,348.63-2.91,343.3,18.85Z" fill="#ff9700"/></g><path id="logo_circle" d="m133.6,36.63C59.79,36.63,0,96.42,0,170.23s59.79,133.6,133.6,133.6,133.6-59.85,133.6-133.6S207.34,36.63,133.6,36.63Zm0,243.44c-60.68,0-109.84-49.16-109.84-109.84s49.16-109.84,109.84-109.84,109.84,49.16,109.84,109.84-49.22,109.84-109.84,109.84Z" fill="#ff9700"/><g id="logo_play"><path d="m205.68,171.2l-75.82,66.86c-10.15,8.91-26.01,3.33-28.86-10.09l-20.43-97.67c-2.79-13.48,9.5-24.94,22.38-20.84l96.25,30.82c13.24,4.28,16.92,21.73,6.47,30.93Z" fill="#fff"/></g></svg>